<?xml version="1.0" encoding="UTF-8" standalone="no"?>
<svg
   xmlns:osb="http://www.openswatchbook.org/uri/2009/osb"
   xmlns:dc="http://purl.org/dc/elements/1.1/"
   xmlns:cc="http://creativecommons.org/ns#"
   xmlns:rdf="http://www.w3.org/1999/02/22-rdf-syntax-ns#"
   xmlns:svg="http://www.w3.org/2000/svg"
   xmlns="http://www.w3.org/2000/svg"
   xmlns:sodipodi="http://sodipodi.sourceforge.net/DTD/sodipodi-0.dtd"
   xmlns:inkscape="http://www.inkscape.org/namespaces/inkscape"
   id="ae7ad495-543d-4c4b-9483-8059c5566fe6"
   data-name="Layer 1"
   width="358.70999"
   height="685.10498"
   viewBox="0 0 358.71 685.10497"
   version="1.1"
   sodipodi:docname="phone.svg"
   inkscape:version="1.0.1 (0767f8302a, 2020-10-17)">
  <metadata
     id="metadata258">
    <rdf:RDF>
      <cc:Work
         rdf:about="">
        <dc:format>image/svg+xml</dc:format>
        <dc:type
           rdf:resource="http://purl.org/dc/dcmitype/StillImage" />
        <dc:title>personalization</dc:title>
      </cc:Work>
    </rdf:RDF>
  </metadata>
  <sodipodi:namedview
     pagecolor="#ffffff"
     bordercolor="#666666"
     borderopacity="1"
     objecttolerance="10"
     gridtolerance="10"
     guidetolerance="10"
     inkscape:pageopacity="0"
     inkscape:pageshadow="2"
     inkscape:window-width="1440"
     inkscape:window-height="827"
     id="namedview256"
     showgrid="false"
     inkscape:zoom="0.63360486"
     inkscape:cx="405.33919"
     inkscape:cy="282.03374"
     inkscape:window-x="1360"
     inkscape:window-y="0"
     inkscape:window-maximized="1"
     inkscape:current-layer="ae7ad495-543d-4c4b-9483-8059c5566fe6"
     inkscape:document-rotation="0" />
  <defs
     id="defs9">
    <linearGradient
       id="f9d7795c-47ab-4264-adf8-fc9a284cd87a"
       x1="491.14001"
       y1="640.96002"
       x2="698.09003"
       y2="640.96002"
       gradientUnits="userSpaceOnUse"
       gradientTransform="translate(-415.79974,-155.72879)">
      <stop
         offset="0"
         stop-color="gray"
         stop-opacity="0.25"
         id="stop2" />
      <stop
         offset="0.54"
         stop-color="gray"
         stop-opacity="0.12"
         id="stop4" />
      <stop
         offset="1"
         stop-color="gray"
         stop-opacity="0.1"
         id="stop6" />
    </linearGradient>
    <filter
       inkscape:collect="always"
       style="color-interpolation-filters:sRGB"
       id="filter1217"
       x="-0.064655475"
       width="1.1293108"
       y="-0.032571744"
       height="1.0651435">
      <feGaussianBlur
         inkscape:collect="always"
         stdDeviation="8.1753805"
         id="feGaussianBlur1219" />
    </filter>
    <filter
       inkscape:collect="always"
       style="color-interpolation-filters:sRGB"
       id="filter1258"
       x="-0.064655475"
       width="1.129311"
       y="-0.032571744"
       height="1.0651435">
      <feGaussianBlur
         inkscape:collect="always"
         stdDeviation="8.1753802"
         id="feGaussianBlur1260" />
    </filter>
    <linearGradient
       id="linearGradient1019"
       osb:paint="solid">
      <stop
         style="stop-color:#000000;stop-opacity:1;"
         offset="0"
         id="stop1017" />
    </linearGradient>
    <linearGradient
       id="b247946c-c62f-4d08-994a-4c3d64e1e98f"
       x1="349"
       y1="698"
       x2="349"
       gradientUnits="userSpaceOnUse">
      <stop
         offset="0"
         stop-color="gray"
         stop-opacity="0.25"
         id="stop2-3" />
      <stop
         offset="0.54"
         stop-color="gray"
         stop-opacity="0.12"
         id="stop4-6" />
      <stop
         offset="1"
         stop-color="gray"
         stop-opacity="0.1"
         id="stop6-0" />
    </linearGradient>
    <linearGradient
       id="b247946c-c62f-4d08-994a-4c3d64e1e98f-1"
       x1="349"
       y1="698"
       x2="349"
       gradientUnits="userSpaceOnUse">
      <stop
         offset="0"
         stop-color="gray"
         stop-opacity="0.25"
         id="stop2-8" />
      <stop
         offset="0.54"
         stop-color="gray"
         stop-opacity="0.12"
         id="stop4-7" />
      <stop
         offset="1"
         stop-color="gray"
         stop-opacity="0.1"
         id="stop6-9" />
    </linearGradient>
  </defs>
  <title
     id="title11">personalization</title>
  <path
     id="rect89-6-0"
     style="mix-blend-mode:normal;fill:#feffff;fill-opacity:0.321569;filter:url(#filter1258)"
     d="m 61.59943,19.62091 c -21.60046,0 -38.99024,17.38977 -38.99024,38.99023 v 40.46289 c -0.0435,-0.002 -0.0848,-0.0117 -0.1289,-0.0117 h -0.39063 c -1.26866,0 -2.28906,1.0204 -2.28906,2.28906 v 19.46094 c 0,1.26865 1.0204,2.28906 2.28906,2.28906 h 0.39063 c 0.0442,0 0.0853,-0.0112 0.1289,-0.0137 v 19.99414 h -0.69922 c -1.26866,0 -2.28906,1.0204 -2.28906,2.28906 v 37.25976 c 0,1.26866 1.02041,2.29102 2.28906,2.29102 h 0.69922 v 14.64063 h -0.60937 c -1.26866,0 -2.28906,1.0204 -2.28906,2.28906 v 37.61914 c 0,1.26866 1.0204,2.29101 2.28906,2.29101 h 0.60937 V 583.0213 c 0,21.60046 17.38978,38.99023 38.99024,38.99023 h 218.41986 c 21.6005,0 38.9902,-17.38977 38.9902,-38.99023 V 229.29083 h 1.7911 c 1.2685,0 2.289,-1.0204 2.289,-2.28906 v -68.43945 c 0,-1.26866 -1.0204,-2.29102 -2.289,-2.29102 h -1.7911 V 58.61114 c 0,-21.60046 -17.3897,-38.99023 -38.9902,-38.99023 z" />
  <path
     id="rect89-6"
     style="fill:#000000;fill-opacity:0.321569;filter:url(#filter1217)"
     d="m 77.59941,35.62091 c -21.60046,0 -38.99024,17.38977 -38.99024,38.99023 v 40.46289 c -0.0435,-0.002 -0.0848,-0.0117 -0.1289,-0.0117 h -0.39063 c -1.26866,0 -2.28906,1.0204 -2.28906,2.28906 v 19.46094 c 0,1.26865 1.0204,2.28906 2.28906,2.28906 h 0.39063 c 0.0442,0 0.0853,-0.0112 0.1289,-0.0137 v 19.99414 h -0.69922 c -1.26866,0 -2.28906,1.0204 -2.28906,2.28906 v 37.25976 c 0,1.26866 1.02041,2.29102 2.28906,2.29102 h 0.69922 V 215.5623 H 37.9998 c -1.26866,0 -2.28906,1.0204 -2.28906,2.28906 v 37.61914 c 0,1.26866 1.0204,2.29101 2.28906,2.29101 h 0.60937 V 599.0213 c 0,21.60046 17.38978,38.99023 38.99024,38.99023 h 218.4199 c 21.6005,0 38.9902,-17.38977 38.9902,-38.99023 V 245.29083 h 1.7911 c 1.2685,0 2.289,-1.0204 2.289,-2.28906 v -68.43945 c 0,-1.26866 -1.0204,-2.29102 -2.289,-2.29102 h -1.7911 V 74.61114 c 0,-21.60046 -17.3897,-38.99023 -38.9902,-38.99023 z" />
  <rect
     x="322.23026"
     y="164.27121"
     width="8.8599997"
     height="73.019997"
     rx="2.29"
     ry="2.29"
     fill="#3a3768"
     id="rect89" />
  <rect
     x="27.800255"
     y="107.06121"
     width="4.9699998"
     height="24.040001"
     rx="2.29"
     ry="2.29"
     fill="#3a3768"
     id="rect91" />
  <rect
     x="27.620262"
     y="151.08121"
     width="5.5999999"
     height="41.84"
     rx="2.29"
     ry="2.29"
     fill="#3a3768"
     id="rect93" />
  <rect
     x="27.710258"
     y="207.56119"
     width="5.3299999"
     height="42.200001"
     rx="2.29"
     ry="2.29"
     fill="#3a3768"
     id="rect95" />
  <rect
     x="30.610252"
     y="27.621208"
     width="296.39999"
     height="602.39001"
     rx="38.990002"
     ry="38.990002"
     fill="#3a3768"
     id="rect97"
     style="fill:#302847;fill-opacity:1" />
  <path
     d="m 285.20026,43.27121 h -34 v 4.09 a 19.38,19.38 0 0 1 -19.39,19.38 h -108.13 a 19.38,19.38 0 0 1 -19.39,-19.38 v -4.09 h -31.83 a 23.54,23.54 0 0 0 -23.54,23.54 v 523.97 a 23.54,23.54 0 0 0 23.54,23.54 h 212.74 a 23.54,23.54 0 0 0 23.54,-23.54 v -523.93 a 23.54,23.54 0 0 0 -23.54,-23.58 z"
     fill="#38d39f"
     id="path99"
     style="fill:#dbdbdb;fill-opacity:1" />
  <rect
     x="150.22028"
     y="45.611214"
     width="41.389999"
     height="8.3999996"
     rx="3.8699999"
     ry="3.8699999"
     fill="#e6e8ec"
     id="rect101" />
  <circle
     cx="202.64029"
     cy="49.811211"
     r="4.77"
     fill="#e6e8ec"
     id="circle103" />
  <rect
     x="75.340263"
     y="100.6312"
     width="206.95"
     height="439.23999"
     opacity="0.1"
     id="rect109"
     style="opacity:0.0680344" />
  <path
     d="m 275.95026,662.49121 c 0,0 -4.88,-11.36 -7.06,-16.6 -1.23,-3 -3.31,-3.5 -4.9,-3.43 l 0.09,-1 0.39,-4.73 0.08,-1 c 3.77,-0.79 7,-1.41 7,-1.41 l -2.35,-121.32 c 0,0 -1,-1.28 -3.42,-9 -1.2,-3.85 -7,-8.58 -12.42,-12.35 -0.85,-0.59 -1.68,-1.15 -2.5,-1.69 a 62.39,62.39 0 0 1 6.21,-4.58 c 3.08,-1.79 4.1,-12 4.1,-12 l -0.51,1 c 0.51,-1 0,-27.07 0,-27.07 l -1.8,-27.06 c 0,0 -1.28,-32.17 -11.28,-40.6 -10,-8.43 -22.63,-11.38 -22.63,-11.38 l -7,-1.8 v 0 l -12.9,-3.31 c -0.36,-0.59 -0.71,-1.21 -1,-1.86 -0.13,-0.25 -0.25,-0.51 -0.37,-0.77 a 30.2,30.2 0 0 0 12.75,-24.65 29.73,29.73 0 0 0 -0.39,-4.84 c 0,-0.3 -0.11,-0.61 -0.17,-0.91 a 25.2,25.2 0 0 0 3,-2.41 13.63,13.63 0 0 0 3.66,-4.49 v 0 a 7.57,7.57 0 0 0 0.34,-1.05 c 0,-0.1 0,-0.2 0.06,-0.31 0.06,-0.11 0.09,-0.53 0.12,-0.8 0,-0.1 0,-0.2 0,-0.3 0,-0.29 0,-0.59 0,-0.88 0,-0.07 0,-0.14 0,-0.22 0,-0.33 -0.05,-0.66 -0.1,-1 a 0.13,0.13 0 0 0 0,-0.06 v 0 a 17.21,17.21 0 0 0 -0.9,-3.4 c -1,-2.58 -2.3,-5 -2.77,-7.75 -0.58,-3.25 0.09,-6.8 -1.46,-9.72 a 8.67,8.67 0 0 0 -6.09,-4.19 14.35,14.35 0 0 0 -7.52,0.86 10.7,10.7 0 0 1 -3.71,1 7.75,7.75 0 0 1 -2.71,-0.66 40.19,40.19 0 0 1 -8.4,-4.51 40.22,40.22 0 0 0 -6,-3.92 8.12,8.12 0 0 0 -6.92,-0.28 c -3.7,1.88 -4.4,7.12 -7.84,9.43 -2.37,1.6 -5.46,1.44 -8.32,1.54 -2.86,0.1 -6.1,0.81 -7.51,3.29 -1,1.72 -0.76,3.77 -0.57,5.78 l 0.06,0.68 c 0,0.24 0,0.49 0.06,0.73 a 18.37,18.37 0 0 1 -1.13,7.56 c -1.38,3.66 -4,7.27 -3.91,11 v 0 a 7.66,7.66 0 0 0 0.23,1.76 8.45,8.45 0 0 0 0.28,0.85 v 0 a 37.24,37.24 0 0 0 1.85,3.61 l 0.09,0.16 c 0.07,0.14 0.14,0.28 0.2,0.42 0.06,0.14 0.18,0.38 0.25,0.57 0.07,0.19 0.08,0.19 0.11,0.28 0.03,0.09 0.13,0.37 0.18,0.56 a 5.36,5.36 0 0 1 0.21,1.74 16.2,16.2 0 0 0 -0.19,2.29 1.68,1.68 0 0 0 1.34,1.63 2.23,2.23 0 0 0 1.16,-0.36 18.57,18.57 0 0 0 2.55,-1.75 c 0,0.32 0,0.64 0.06,1 a 30.26,30.26 0 0 0 9.09,18.83 c 0,0.31 0,0.63 -0.07,1 -0.07,0.37 -0.05,0.72 -0.07,1.09 v 0 l -11.2,3.52 c 0,0 0.06,0.2 0.18,0.54 l -1.18,0.47 v 0 c -5.81,2.35 -12.28,5.27 -15.9,7.92 -1.6,1.16 -3.06,2.11 -4.37,2.9 a 25,25 0 0 0 -10.36,12.55 l -0.15,0.38 c -1,2.29 -5.9,17.87 -5.9,17.87 0,0 -3.59,8.68 -4.11,14.3 0,0 -5.9,18.63 -4.36,30.89 0,0 -4.62,17.62 -2.82,20.42 0,0 -1.84,7.58 6.24,15.21 -0.59,0.36 -1.23,0.75 -1.9,1.18 -6.26,3.94 -15.29,10.33 -16.83,15.26 -2.39,7.67 -3.42,9 -3.42,9 l -2.42,121.13 c 0,0 3.23,0.62 7,1.4 l 0.08,1 0.39,4.72 0.09,1 c -1.59,-0.07 -3.67,0.48 -4.9,3.44 -2.19,5.23 -7,16.58 -7,16.58 0,0 -10.77,10 -4.24,19.28 a 6.68,6.68 0 0 0 1,1.16 c 4.69,4.26 14.69,1.53 21.8,-1.25 a 21.26,21.26 0 0 0 9,-7.26 3.42,3.42 0 0 1 2.4,-1.33 9.8,9.8 0 0 0 4.47,-1.95 6,6 0 0 0 2.46,-5 0.76,0.76 0 0 1 0,-0.15 l -0.63,-14.23 c 0,0 -0.77,-9.94 -3.22,-9.3 l -0.63,0.15 -0.17,-1 v 0 l -0.33,-1.93 -0.17,-1 h 1.36 c 0,0 0.34,-11.24 4.45,-20.08 4.11,-8.84 6.81,-80.25 6.81,-80.25 0,0 50.87,0.83 52.57,-3.94 v 0 c 1,0 2.09,0 3.13,-0.07 1.71,4.77 49.72,5 49.72,5 0,0 2.73,71.49 6.83,80.34 a 40.82,40.82 0 0 1 2.15,5.86 v 0 a 65.41,65.41 0 0 1 2.31,14.21 h 1.36 l -0.18,1 -0.33,1.92 -0.17,1 -0.65,-0.15 c -2.43,-0.63 -3.2,9.31 -3.2,9.31 l -0.65,14.32 a 5.81,5.81 0 0 0 2.38,5 10,10 0 0 0 4.55,2 3.34,3.34 0 0 1 2.4,1.32 21.32,21.32 0 0 0 9,7.26 c 7.68,3 18.72,5.93 22.82,0.1 6.58,-9.3 -4.19,-19.26 -4.19,-19.26 z m -129.3,-178.34 v 0 h 0.12 z m 80.35,-40.88 c 0,0 1.29,4.85 3.59,7.4 2.3,2.55 1.16,18.39 1.16,18.39 a 14.2,14.2 0 0 0 -2.68,0.43 c -1.77,-10.53 -3.4,-22.22 -2.07,-26.22 z"
     fill="url(#f9d7795c-47ab-4264-adf8-fc9a284cd87a)"
     id="path111"
     style="fill:url(#f9d7795c-47ab-4264-adf8-fc9a284cd87a)" />
  <polygon
     points="436.19,763.88 436.96,768.43 416.85,770.43 416.29,763.7 415.9,759.07 415.35,752.3 434.35,753.3 435.86,761.99 436.18,763.88 "
     fill="#8e6f7f"
     id="polygon113"
     transform="translate(-320.56974,-125.54879)" />
  <polygon
     points="583.41,753.31 582.86,760.07 582.48,764.7 581.91,771.43 561.79,769.43 562.59,764.88 562.9,763 564.41,754.31 "
     fill="#8e6f7f"
     id="polygon115"
     transform="translate(-320.56974,-125.54879)" />
  <path
     d="m 241.53026,530.37121 -59.8,2.81 q -4.08,0.2 -8.16,0 l -57.13,-2.8 v -45.26 h 125.09 z"
     fill="#5f5570"
     id="path117" />
  <path
     d="m 241.53026,530.37121 -59.8,2.81 q -4.08,0.2 -8.16,0 l -57.13,-2.8 v -45.26 h 125.09 z"
     opacity="0.1"
     id="path119" />
  <path
     d="m 164.95026,363.18121 c 0,0 -19.92,6.69 -27.42,12.19 -1.56,1.14 -3,2.08 -4.26,2.85 a 24.4,24.4 0 0 0 -10.07,12.28 c -0.05,0.14 -0.1,0.26 -0.15,0.37 -1,2.25 -5.75,17.5 -5.75,17.5 0,0 -3.5,8.5 -4,14 -0.5,5.5 28.5,20.25 28.5,20.25 0,0 -14,30.5 -7.75,38.25 6.25,7.75 97.5,11.5 95.5,0 -2,-11.5 -5.5,-30.5 -3.75,-35.75 l 31,-22.5 c 0,0 -1.25,-31.5 -11,-39.75 -9.75,-8.25 -22,-11.25 -22,-11.25 l -19.41,-5 c 0,0 -6.84,17 -14.34,19.25 -7.5,2.25 -23.93,-8.14 -25.1,-22.69 z"
     fill="#eaeaf2"
     id="path121" />
  <path
     d="m 192.93026,391.81121 c 0,0 -8.46,7.06 -12.9,0 0,0 -4,11.94 0,15.94 l -0.15,0.81 -0.71,3.56 -9.26,77 7.62,13.15 13.87,-17.4 -1.12,-72 -0.5,-4.13 -0.12,-1 h 2.37 c 0,0 6.29,-10.87 0.9,-15.93 z"
     opacity="0.1"
     id="path123" />
  <path
     d="m 194.93026,391.81121 c 0,0 -8.46,7.06 -12.9,0 0,0 -4,11.94 0,15.94 l -0.15,0.81 -0.71,3.56 -9.26,77 7.62,13.15 13.87,-17.4 -1.12,-72 -0.5,-4.13 -0.12,-1 h 2.37 c 0,0 6.29,-10.87 0.9,-15.93 z"
     opacity="0.1"
     id="path125" />
  <polygon
     points="511.35,533.3 511.85,537.43 512.97,609.43 499.1,626.8 491.46,613.72 500.73,536.68 501.44,533.12 501.6,532.3 502.85,529.06 511.23,532.3 "
     fill="#bc8487"
     id="polygon127"
     transform="translate(-320.56974,-125.54879)" />
  <path
     d="m 115.29026,636.43121 a 67.93,67.93 0 0 1 -12.85,-1.31 c -2.09,-0.52 -4.71,-1.1 -7.1,-1.61 l -0.56,-6.77 19,1 z"
     opacity="0.1"
     id="path129" />
  <path
     d="m 178.68026,533.27121 c -1.66,4.67 -51.24,3.85 -51.24,3.85 0,0 -2.66,70 -6.66,78.67 -4,8.67 -4.34,19.66 -4.34,19.66 0,0 -8.66,0 -14,-1.33 -5.34,-1.33 -14,-3 -14,-3 l 2.34,-118.75 c 0,0 1,-1.25 3.33,-8.76 1.5,-4.83 10.3,-11.09 16.39,-15 3.4,-2.14 5.94,-3.54 5.94,-3.54 l 29.58,1.2 18.26,0.74 c 0,0 16.07,41.59 14.4,46.26 z"
     fill="#5f5570"
     id="path131" />
  <path
     d="m 116.40026,642.87121 -20.12,2 -0.57,-6.73 a 6,6 0 0 1 2.19,0.48 c 3.67,2.64 14.16,0.54 17.71,-0.3 v 0 z"
     opacity="0.1"
     id="path133" />
  <path
     d="m 120.20026,662.32121 a 5.87,5.87 0 0 1 -2.41,4.89 9.55,9.55 0 0 1 -4.35,1.91 3.25,3.25 0 0 0 -2.33,1.3 20.87,20.87 0 0 1 -8.8,7.11 c -6.93,2.72 -16.68,5.39 -21.25,1.22 a 6.32,6.32 0 0 1 -1,-1.13 c -6.37,-9.12 4.13,-18.88 4.13,-18.88 0,0 4.74,-11.12 6.87,-16.24 a 5,5 0 0 1 6.87,-2.88 c 4,2.88 16.13,0.12 18.5,-0.49 2.37,-0.61 3.13,9.11 3.13,9.11 l 0.64,13.93 a 0.76,0.76 0 0 0 0,0.15 z"
     fill="#bc8487"
     id="path135" />
  <path
     d="m 262.85026,627.75121 -0.56,6.76 c -2.39,0.51 -5,1.09 -7.11,1.61 a 68.11,68.11 0 0 1 -12.84,1.32 l 1.51,-8.69 z"
     opacity="0.1"
     id="path137" />
  <path
     d="m 269.20026,632.12121 c 0,0 -8.66,1.67 -14,3 -5.34,1.33 -14,1.33 -14,1.33 0,0 -0.33,-11 -4.33,-19.66 -4,-8.66 -6.67,-78.67 -6.67,-78.67 0,0 -46.78,-0.27 -48.45,-4.94 -1.67,-4.67 20.39,-45 20.39,-45 l 13.45,-0.7 25.61,-1.36 c 0,0 5,2.72 10.24,6.39 5.24,3.67 10.93,8.33 12.1,12.1 2.33,7.51 3.33,8.76 3.33,8.76 z"
     fill="#5f5570"
     id="path139" />
  <path
     d="m 261.91026,639.14121 -0.56,6.73 -20.13,-2 0.8,-4.55 c 3.55,0.85 14,2.94 17.7,0.3 a 6,6 0 0 1 2.19,-0.48 z"
     opacity="0.1"
     id="path141" />
  <path
     d="m 259.72026,640.62121 a 5,5 0 0 1 6.88,2.88 c 2.12,5.12 6.87,16.25 6.87,16.25 0,0 10.5,9.75 4.13,18.87 -4,5.72 -14.76,2.85 -22.24,-0.09 a 20.74,20.74 0 0 1 -8.8,-7.11 3.26,3.26 0 0 0 -2.34,-1.3 9.81,9.81 0 0 1 -4.44,-2 5.72,5.72 0 0 1 -2.31,-4.88 l 0.63,-14 c 0,0 0.75,-9.73 3.12,-9.12 2.37,0.61 14.5,3.38 18.5,0.5 z"
     fill="#bc8487"
     id="path143" />
  <path
     d="m 208.03026,371.62121 -20.19,21.4 -0.56,0.6 -0.73,-0.43 c -4.22,-2.5 -25.33,-15.24 -23.52,-19.07 1,-2.18 1.59,-6.72 1.9,-10.63 0,-0.47 0.06,-0.93 0.1,-1.38 0.2,-3.09 0.25,-5.49 0.25,-5.49 0,0 38,-6.5 36.5,0 -0.61,2.63 0.3,5.59 1.59,8.18 0.38,0.75 0.8,1.46 1.21,2.13 a 33,33 0 0 0 3.45,4.69 z"
     fill="#ffc4d0"
     id="path145"
     style="fill:#fdb797;fill-opacity:1" />
  <path
     d="m 203.37026,364.80121 a 29.65,29.65 0 0 1 -38.34,-2.69 c 0.2,-3.09 0.25,-5.49 0.25,-5.49 0,0 38,-6.5 36.5,0 -0.58,2.65 0.3,5.59 1.59,8.18 z"
     opacity="0.1"
     id="path147" />
  <path
     d="m 215.44026,339.91121 a 29.67,29.67 0 0 1 -59.24,2.82 q -0.12,-1.4 -0.12,-2.82 a 29.67,29.67 0 1 1 59.33,0 z"
     fill="#ffc4d0"
     id="path149"
     style="fill:#fdb797;fill-opacity:1" />
  <path
     d="m 215.07026,335.17121 a 7.1,7.1 0 0 1 -5.58,1.51 c -4.58,-1 -6.15,-8 -10.83,-8.48 -4.68,-0.48 -7.79,6 -12.53,5.87 -2,-0.05 -3.8,-1.36 -5.64,-2.27 -3.22,-1.59 -8.52,-2.56 -12,-1.36 -5.23,1.79 -7,6.63 -10.34,10.48 a 15.25,15.25 0 0 1 -1.87,1.81 q -0.12,-1.4 -0.12,-2.82 a 29.67,29.67 0 0 1 59,-4.74 z"
     opacity="0.1"
     id="path151" />
  <path
     d="m 180.49026,330.81121 c 1.84,0.9 3.6,2.22 5.64,2.27 4.73,0.12 7.82,-6.39 12.52,-5.88 4.7,0.51 6.25,7.45 10.85,8.48 3.09,0.7 6,-1.61 8.31,-3.76 a 13.23,13.23 0 0 0 3.57,-4.39 c 1,-2.48 0.48,-5.34 -0.45,-7.86 -0.93,-2.52 -2.24,-4.94 -2.7,-7.59 -0.56,-3.18 0.09,-6.66 -1.42,-9.52 a 8.43,8.43 0 0 0 -5.94,-4.1 14,14 0 0 0 -7.33,0.83 10.37,10.37 0 0 1 -3.61,1 7.64,7.64 0 0 1 -2.65,-0.65 39.13,39.13 0 0 1 -8.18,-4.41 38.35,38.35 0 0 0 -5.83,-3.84 7.86,7.86 0 0 0 -6.74,-0.27 c -3.6,1.84 -4.29,7 -7.64,9.23 -2.31,1.56 -5.32,1.4 -8.1,1.51 -2.78,0.11 -6,0.78 -7.32,3.21 -1.18,2.09 -0.59,4.66 -0.44,7.05 a 18.1,18.1 0 0 1 -1.11,7.4 c -1.55,4.14 -4.7,8.22 -3.58,12.5 0.73,2.81 3.25,5.14 3.1,8 a 15.25,15.25 0 0 0 -0.19,2.23 1.65,1.65 0 0 0 1.31,1.6 2,2 0 0 0 1.12,-0.36 16.72,16.72 0 0 0 4.41,-3.57 c 3.38,-3.86 5.13,-8.69 10.36,-10.48 3.53,-1.17 8.82,-0.23 12.04,1.37 z"
     fill="#8e6f7f"
     id="path153"
     style="fill:#333333;fill-opacity:1" />
  <path
     d="m 214.90026,505.37121 -5.4,1.47 -12.47,3.43 a 30.13,30.13 0 0 1 -9.59,4.77 c -7.63,1.93 -12.56,-2.27 -16.66,-8.77 -1.65,-2.6 -0.82,-4.68 1.34,-6.31 5.2,-3.93 18.06,-5.21 22,-4.69 a 16.46,16.46 0 0 0 7.59,-1.18 29.4,29.4 0 0 0 4.91,-2.32 z"
     fill="#ffc4d0"
     id="path155"
     style="fill:#fdb797;fill-opacity:1" />
  <path
     d="m 214.90026,505.37121 -5.4,1.47 c -1.55,-4.67 -4.1,-10.53 -7.75,-12.78 a 29.4,29.4 0 0 0 4.91,-2.32 z"
     opacity="0.1"
     id="path157" />
  <path
     d="m 251.42026,492.51121 c -2.24,1.81 -4.14,3.46 -4.14,3.46 0,0 -26,8.15 -31,18.4 0,0 -4,-20 -12.5,-20.25 0,0 9.15,-3.59 11.79,-6.66 l 25.63,-1.34 c 0,0 5,2.72 10.22,6.39 z"
     opacity="0.1"
     id="path159" />
  <path
     d="m 251.03026,414.12121 5.75,8.5 1.75,26.5 c 0,0 0.5,25.5 0,26.5 l 0.5,-1 c 0,0 -1,10 -4,11.75 -3,1.75 -9.75,7.6 -9.75,7.6 0,0 -26,8.15 -31,18.4 0,0 -4,-20 -12.5,-20.25 0,0 12.75,-5 12.5,-8.25 0,0 9.75,-8.75 10.5,-11 0.75,-2.25 5.62,-2.5 5.62,-2.5 0,0 1.13,-15.5 -1.12,-18 -2.25,-2.5 -3.5,-7.25 -3.5,-7.25 z"
     fill="#eaeaf2"
     id="path161" />
  <path
     d="m 187.44026,515.01121 c -7.63,1.93 -12.56,-2.27 -16.66,-8.77 -1.65,-2.6 -0.82,-4.68 1.34,-6.31 l 0.78,0.31 c 0,0 13.75,5.96 14.54,14.77 z"
     opacity="0.1"
     id="path163" />
  <path
     d="m 184.28026,523.00121 c -9,12.5 -25.75,-4.88 -27,-8.38 -0.45,-1.27 -2.16,-2.4 -4.13,-3.31 a 44.58,44.58 0 0 0 -7.75,-2.57 l 14.88,-12.12 2.85,1.14 8.77,3.51 c 0,0 21.38,9.23 12.38,21.73 z"
     fill="#ffc4d0"
     id="path165"
     style="fill:#fdb797;fill-opacity:1" />
  <path
     d="m 163.13026,497.76121 c -8.2,3.9 -9.95,9.51 -10,13.55 a 44.58,44.58 0 0 0 -7.75,-2.57 l 14.88,-12.12 z"
     opacity="0.1"
     id="path167" />
  <path
     d="m 150.03026,519.37121 c 0,0 -24,-19 -35.5,-27.25 a 28.12,28.12 0 0 1 -4,-3.46 c 3.4,-2.14 5.94,-3.54 5.94,-3.54 l 29.58,1.2 c 0.79,1.37 1.26,2.3 1.26,2.3 l 16,10.5 c -19.28,6.25 -13.28,20.25 -13.28,20.25 z"
     opacity="0.1"
     id="path169" />
  <path
     d="m 118.03026,419.62121 -4.75,2.75 c 0,0 -5.75,18.25 -4.25,30.25 0,0 -4.5,17.25 -2.75,20 0,0 -2.25,9.25 9.25,17.5 11.5,8.25 35.5,27.25 35.5,27.25 0,0 -6,-14 13.25,-20.25 l -16,-10.5 c 0,0 -5.37,-10.66 -10.5,-13 0,0 -4,-4 -1.5,-6.75 2.5,-2.75 4.5,-5.75 4.5,-8.5 0,-2.75 1,-15.75 1,-15.75 l 3,-14 z"
     fill="#eaeaf2"
     id="path171" />
  <path
     d="m 190.78026,407.74121 h -9.75 a 1.29,1.29 0 0 1 -0.16,-0.18 l 0.16,-0.82 1.25,-3.24 8.38,3.24 z"
     opacity="0.1"
     id="path173" />
  <path
     d="m 193.93026,390.81121 c 0,0 -8.46,7.06 -12.9,0 0,0 -4,11.94 0,15.94 h 12 c 0,0 6.29,-10.88 0.9,-15.94 z"
     fill="#bc8487"
     id="path175" />
  <path
     d="m 205.37026,367.62121 12.6,3.25 c 0,0 -11.94,31 -14.57,31 l -15.12,-7.25 z"
     opacity="0.1"
     id="path177" />
  <path
     d="m 208.03026,371.62121 -20.19,21.4 -0.56,0.6 -0.73,-0.43 17.65,-26.92 0.43,0.71 a 33,33 0 0 0 3.4,4.64 z"
     opacity="0.1"
     id="path179" />
  <path
     d="m 204.37026,366.62121 12.6,3.25 c 0,0 -11.94,31 -14.57,31 l -15.12,-7.25 z"
     fill="#eaeaf2"
     id="path181" />
  <path
     d="m 163.95026,364.18121 -10.92,3.44 c 0,0 10.75,32.5 13.75,34.25 l 19.5,-7.25 z"
     opacity="0.1"
     id="path183" />
  <path
     d="m 187.84026,393.02121 -0.56,0.6 c 0,0 -26.25,-15.25 -24.25,-19.5 1,-2.18 1.59,-6.72 1.9,-10.63 v -0.61 z"
     opacity="0.1"
     id="path185" />
  <path
     d="m 164.95026,363.18121 -10.92,3.44 c 0,0 10.75,32.5 13.75,34.25 l 19.5,-7.25 z"
     fill="#eaeaf2"
     id="path187" />
  <path
     d="m 138.94026,416.27121 c 0,0 6.58,1.17 6.46,8 -0.12,6.83 2.71,-8.83 2.71,-8.83 z"
     opacity="0.1"
     id="path189" />
  <path
     d="m 140.44026,437.27121 c 0,0 -1.83,10.33 0,19.67 1.83,9.34 1.67,12.5 3.09,13 1.42,0.5 -3.09,-32.67 -3.09,-32.67 z"
     opacity="0.1"
     id="path191" />
  <path
     d="m 224.44026,436.27121 a 3.62,3.62 0 0 0 -3,4.67 c 0.84,4.18 3,-4.67 3,-4.67 z"
     opacity="0.1"
     id="path193" />
  <path
     d="m 110.11026,471.27121 c 0,0 21.43,-1.83 25,2 3.57,3.83 -25,-2 -25,-2 z"
     opacity="0.1"
     id="path195" />
  <path
     d="m 234.44026,472.72121 c 0,0 15.67,-1.93 19.34,0.74"
     opacity="0.1"
     id="path197" />
  <path
     d="m 240.78026,475.27121 c 0,0 9.33,0.33 11.5,1.5"
     opacity="0.1"
     id="path199" />
  <path
     d="m 242.61026,478.62121 c 0,0 8.5,-0.33 9.67,1"
     opacity="0.1"
     id="path201" />
  <path
     d="m 122.74026,525.62121 c 0,0 7.28,3.79 6.54,7.66 -0.74,3.87 -6.54,-7.66 -6.54,-7.66 z"
     opacity="0.1"
     id="path203" />
  <path
     d="m 116.44026,527.46121 c 0,0 11.11,14.41 9.6,19.16 -1.51,4.75 -9.6,-19.16 -9.6,-19.16 z"
     opacity="0.1"
     id="path205" />
  <path
     d="m 235.53026,529.85121 c 0,0 -5.5,4.53 -5.35,8.27"
     opacity="0.1"
     id="path207" />
  <path
     d="m 108.53026,619.12121 c 0,0 0,4.25 7.87,10.5"
     opacity="0.1"
     id="path209" />
  <path
     d="m 247.44026,609.12121 c 0,0 -0.84,8.84 -8.5,13.42"
     opacity="0.1"
     id="path211" />
  <g
     opacity="0.1"
     id="g219"
     transform="translate(-320.56974,-125.54879)">
    <path
       d="m 568.83,464.81 c 0,-0.69 -0.12,-1.4 -0.18,-2.1 a 20.17,20.17 0 0 0 0.14,4.58 18.64,18.64 0 0 0 0.04,-2.48 z"
       transform="translate(-95.23,-30.18)"
       id="path213" />
    <path
       d="m 567.24,492.75 c 0.15,-2.9 -2.37,-5.23 -3.1,-8 a 2.7,2.7 0 0 1 -0.08,-0.41 7.71,7.71 0 0 0 0.08,3.41 c 0.59,2.29 2.37,4.25 2.93,6.47 0.05,-0.52 0.15,-0.99 0.17,-1.47 z"
       transform="translate(-95.23,-30.18)"
       id="path215" />
    <path
       d="m 637.18,480.26 a 13.33,13.33 0 0 1 -3.57,4.39 c -2.33,2.15 -5.22,4.46 -8.31,3.76 -4.59,-1 -6.17,-8 -10.85,-8.48 -4.68,-0.48 -7.79,6 -12.52,5.87 -2,-0.05 -3.8,-1.36 -5.64,-2.27 -3.22,-1.59 -8.51,-2.56 -12,-1.36 -5.23,1.79 -7,6.63 -10.36,10.48 a 16.87,16.87 0 0 1 -4.4,3.58 2.12,2.12 0 0 1 -1.13,0.35 1.39,1.39 0 0 1 -1.12,-0.9 v 0.07 a 15.39,15.39 0 0 0 -0.19,2.24 1.65,1.65 0 0 0 1.31,1.59 2.12,2.12 0 0 0 1.13,-0.35 16.87,16.87 0 0 0 4.4,-3.58 c 3.38,-3.85 5.13,-8.69 10.36,-10.48 3.53,-1.2 8.82,-0.23 12,1.36 1.84,0.91 3.6,2.22 5.64,2.27 4.73,0.12 7.82,-6.39 12.52,-5.87 4.7,0.52 6.26,7.44 10.85,8.48 3.09,0.7 6,-1.61 8.31,-3.76 a 13.33,13.33 0 0 0 3.57,-4.39 8.44,8.44 0 0 0 0.43,-4.54 7.07,7.07 0 0 1 -0.43,1.54 z"
       transform="translate(-95.23,-30.18)"
       id="path217" />
  </g>
  <path
     d="m 84.20026,658.75121 c 0,0 8.17,-2.52 11.56,2.26"
     opacity="0.1"
     id="path221" />
  <path
     d="m 273.47026,659.75121 c 0,0 -13.53,-0.79 -13,2.87"
     opacity="0.1"
     id="path223" />
</svg>
