<?xml version="1.0" encoding="UTF-8" standalone="no"?>
<svg
   xmlns:osb="http://www.openswatchbook.org/uri/2009/osb"
   xmlns:dc="http://purl.org/dc/elements/1.1/"
   xmlns:cc="http://creativecommons.org/ns#"
   xmlns:rdf="http://www.w3.org/1999/02/22-rdf-syntax-ns#"
   xmlns:svg="http://www.w3.org/2000/svg"
   xmlns="http://www.w3.org/2000/svg"
   xmlns:sodipodi="http://sodipodi.sourceforge.net/DTD/sodipodi-0.dtd"
   xmlns:inkscape="http://www.inkscape.org/namespaces/inkscape"
   id="457bf273-24a3-4fd8-a857-e9b918267d6a"
   data-name="Layer 1"
   width="758.479"
   height="758.479"
   viewBox="0 0 758.479 758.479"
   version="1.1"
   sodipodi:docname="user.svg"
   inkscape:version="1.0.1 (0767f8302a, 2020-10-17)">
  <metadata
     id="metadata44">
    <rdf:RDF>
      <cc:Work
         rdf:about="">
        <dc:format>image/svg+xml</dc:format>
        <dc:type
           rdf:resource="http://purl.org/dc/dcmitype/StillImage" />
        <dc:title>profile pic</dc:title>
      </cc:Work>
    </rdf:RDF>
  </metadata>
  <sodipodi:namedview
     pagecolor="#ffffff"
     bordercolor="#666666"
     borderopacity="1"
     objecttolerance="10"
     gridtolerance="10"
     guidetolerance="10"
     inkscape:pageopacity="0"
     inkscape:pageshadow="2"
     inkscape:window-width="1440"
     inkscape:window-height="827"
     id="namedview42"
     showgrid="false"
     inkscape:zoom="0.38108884"
     inkscape:cx="743.45377"
     inkscape:cy="313.24389"
     inkscape:window-x="1360"
     inkscape:window-y="0"
     inkscape:window-maximized="1"
     inkscape:current-layer="457bf273-24a3-4fd8-a857-e9b918267d6a"
     inkscape:document-rotation="0" />
  <defs
     id="defs9">
    <linearGradient
       id="linearGradient1019"
       osb:paint="solid">
      <stop
         style="stop-color:#000000;stop-opacity:1;"
         offset="0"
         id="stop1017" />
    </linearGradient>
    <linearGradient
       id="b247946c-c62f-4d08-994a-4c3d64e1e98f"
       x1="349"
       y1="698"
       x2="349"
       gradientUnits="userSpaceOnUse">
      <stop
         offset="0"
         stop-color="gray"
         stop-opacity="0.25"
         id="stop2" />
      <stop
         offset="0.54"
         stop-color="gray"
         stop-opacity="0.12"
         id="stop4" />
      <stop
         offset="1"
         stop-color="gray"
         stop-opacity="0.1"
         id="stop6" />
    </linearGradient>
    <filter
       inkscape:collect="always"
       style="color-interpolation-filters:sRGB"
       id="filter943"
       x="-0.04332"
       width="1.08664"
       y="-0.04332"
       height="1.08664">
      <feGaussianBlur
         inkscape:collect="always"
         stdDeviation="12.333205"
         id="feGaussianBlur945" />
    </filter>
    <filter
       inkscape:collect="always"
       style="color-interpolation-filters:sRGB"
       id="filter943-6"
       x="-0.04332"
       width="1.08664"
       y="-0.04332"
       height="1.08664">
      <feGaussianBlur
         inkscape:collect="always"
         stdDeviation="12.333205"
         id="feGaussianBlur945-7" />
    </filter>
    <linearGradient
       id="f9d7795c-47ab-4264-adf8-fc9a284cd87a"
       x1="491.14001"
       y1="640.96002"
       x2="698.09003"
       y2="640.96002"
       gradientUnits="userSpaceOnUse"
       gradientTransform="translate(-415.79974,-155.72879)">
      <stop
         offset="0"
         stop-color="gray"
         stop-opacity="0.25"
         id="stop2-6" />
      <stop
         offset="0.54"
         stop-color="gray"
         stop-opacity="0.12"
         id="stop4-75" />
      <stop
         offset="1"
         stop-color="gray"
         stop-opacity="0.1"
         id="stop6-3" />
    </linearGradient>
    <linearGradient
       id="b247946c-c62f-4d08-994a-4c3d64e1e98f-6"
       x1="349"
       y1="698"
       x2="349"
       gradientUnits="userSpaceOnUse">
      <stop
         offset="0"
         stop-color="gray"
         stop-opacity="0.25"
         id="stop2-3" />
      <stop
         offset="0.54"
         stop-color="gray"
         stop-opacity="0.12"
         id="stop4-6" />
      <stop
         offset="1"
         stop-color="gray"
         stop-opacity="0.1"
         id="stop6-0" />
    </linearGradient>
    <linearGradient
       id="b247946c-c62f-4d08-994a-4c3d64e1e98f-1"
       x1="349"
       y1="698"
       x2="349"
       gradientUnits="userSpaceOnUse">
      <stop
         offset="0"
         stop-color="gray"
         stop-opacity="0.25"
         id="stop2-8" />
      <stop
         offset="0.54"
         stop-color="gray"
         stop-opacity="0.12"
         id="stop4-7" />
      <stop
         offset="1"
         stop-color="gray"
         stop-opacity="0.1"
         id="stop6-9" />
    </linearGradient>
  </defs>
  <title
     id="title11">profile pic</title>
  <circle
     cx="371.23972"
     cy="371.23969"
     fill="#f5f5f5"
     id="circle17-3-5"
     style="fill:#fefffd;fill-opacity:0.321569;stroke-width:1;filter:url(#filter943-6)"
     r="341.64001" />
  <circle
     cx="387.23972"
     cy="387.23969"
     fill="#f5f5f5"
     id="circle17-3"
     style="fill:#000000;fill-opacity:0.321569;stroke-width:1;filter:url(#filter943)"
     r="341.64001" />
  <circle
     cx="379.23972"
     cy="379.23969"
     fill="#f5f5f5"
     id="circle17"
     style="opacity:0.997;fill:#dbdbdb;fill-opacity:1;stroke-width:1"
     r="341.64001" />
  <path
     d="m 379.55971,722.22971 a 340,340 0 0 0 187.79,-56.2 c -12.59,-68.8 -60.5,-72.72 -60.5,-72.72 h -264.2 c 0,0 -45.21,3.71 -59.33,67 a 340.07,340.07 0 0 0 196.24,61.92 z"
     fill="#38d39f"
     id="path19"
     style="fill:#eaeaf2;fill-opacity:1" />
  <circle
     cx="375.92972"
     cy="372.0397"
     r="164.89999"
     fill="#333333"
     id="circle21" />
  <path
     d="m 322.70971,509.38971 h 105.66 v 84.53 a 52.83,52.83 0 0 1 -52.81,52.83 v 0 a 52.83,52.83 0 0 1 -52.83,-52.83 v -84.53 z"
     opacity="0.1"
     id="path23" />
  <path
     d="m 326.05971,505.46971 h 99 a 3.35,3.35 0 0 1 3.35,3.35 v 81.18 a 52.83,52.83 0 0 1 -52.85,52.84 v 0 a 52.83,52.83 0 0 1 -52.83,-52.83 v -81.19 a 3.35,3.35 0 0 1 3.33,-3.35 z"
     fill="#fdb797"
     id="path25" />
  <path
     d="m 322.89971,549.28971 a 152.07,152.07 0 0 0 105.66,0.29 v -13 h -105.66 z"
     opacity="0.1"
     id="path27" />
  <circle
     cx="375.92972"
     cy="404.9097"
     r="151.45"
     fill="#fdb797"
     id="circle29" />
  <path
     d="m 268.04971,267.14971 c 0,0 63.83,129.56 243.88,54.32 l -41.92,-65.73 -74.31,-26.67 z"
     opacity="0.1"
     id="path31" />
  <path
     d="m 268.04971,265.24971 c 0,0 63.83,129.56 243.88,54.3 l -41.92,-65.73 -74.31,-26.67 z"
     fill="#333333"
     id="path33" />
  <path
     d="m 267.48971,256.46971 a 87.49,87.49 0 0 1 21.69,-35.27 c 29.79,-29.45 78.63,-35.66 103.68,-69.24 6,9.32 1.36,23.65 -9,27.65 24,-0.16 51.81,-2.26 65.38,-22 a 44.89,44.89 0 0 1 -7.57,47.4 c 21.27,1 44,15.4 45.34,36.65 0.92,14.16 -8,27.56 -19.59,35.68 -11.59,8.12 -25.71,11.85 -39.56,14.9 -40.44,8.93 -186.76,46.3 -160.37,-35.77 z"
     fill="#333333"
     id="path35" />
  <ellipse
     cx="224.41971"
     cy="404.76968"
     rx="14.09"
     ry="26.42"
     fill="#fdb797"
     id="ellipse37" />
  <ellipse
     cx="527.35968"
     cy="404.76968"
     rx="14.09"
     ry="26.42"
     fill="#fdb797"
     id="ellipse39" />
  <circle
     style="opacity:0.99425;fill:none;fill-opacity:1;fill-rule:evenodd;stroke:#dbdbdb;stroke-width:15.1423;stroke-miterlimit:4;stroke-dasharray:none;stroke-opacity:1;paint-order:markers fill stroke"
     id="path1039"
     cx="379.23972"
     cy="379.23969"
     r="341.65302" />
</svg>
